<svg width="50" height="39" viewBox="0 0 50 39" fill="none" xmlns="http://www.w3.org/2000/svg">
<path d="M41.8544 22.8293V37.0976C41.8544 37.6128 41.6661 38.0587 41.2896 38.4352C40.913 38.8118 40.4672 39 39.9519 39H28.5373V27.5854H20.9275V39H9.5129C8.99765 39 8.55177 38.8118 8.17524 38.4352C7.79872 38.0587 7.61046 37.6128 7.61046 37.0976V22.8293C7.61046 22.8095 7.61541 22.7797 7.62532 22.7401C7.63523 22.7005 7.64018 22.6707 7.64018 22.6509L24.7324 8.56099L41.8246 22.6509C41.8444 22.6906 41.8544 22.75 41.8544 22.8293ZM48.4832 20.7782L46.6402 22.9779C46.4816 23.1563 46.2736 23.2653 46.0159 23.3049H45.9268C45.6691 23.3049 45.4611 23.2355 45.3025 23.0968L24.7324 5.94514L4.16229 23.0968C3.92448 23.2554 3.68668 23.3247 3.44887 23.3049C3.19125 23.2653 2.98317 23.1563 2.82463 22.9779L0.981646 20.7782C0.823109 20.58 0.753749 20.3472 0.773567 20.0797C0.793384 19.8121 0.902377 19.5991 1.10055 19.4406L22.4733 1.63493C23.1074 1.11968 23.8605 0.862061 24.7324 0.862061C25.6044 0.862061 26.3574 1.11968 26.9916 1.63493L34.2446 7.69895V1.90246C34.2446 1.62502 34.3338 1.39712 34.5121 1.21877C34.6905 1.04041 34.9184 0.951237 35.1958 0.951237H40.9031C41.1806 0.951237 41.4085 1.04041 41.5868 1.21877C41.7652 1.39712 41.8544 1.62502 41.8544 1.90246V14.0305L48.3643 19.4406C48.5624 19.5991 48.6714 19.8121 48.6912 20.0797C48.7111 20.3472 48.6417 20.58 48.4832 20.7782Z" fill="#E6E6E6"/>
</svg>
