<svg width="24" height="24" viewBox="0 0 24 24" fill="none" xmlns="http://www.w3.org/2000/svg">
<path d="M17.2532 12.4874C16.9692 14.8524 15.4202 15.7974 14.7512 16.4834C14.0812 17.1714 14.2012 17.3084 14.2462 18.3174C14.2537 18.4423 14.2356 18.5673 14.1929 18.6849C14.1503 18.8024 14.084 18.91 13.9982 19.001C13.9124 19.092 13.8088 19.1644 13.694 19.2138C13.5791 19.2633 13.4553 19.2887 13.3302 19.2884H10.6722C10.5472 19.2882 10.4236 19.2625 10.3089 19.213C10.1942 19.1634 10.0908 19.091 10.0049 19.0001C9.91913 18.9092 9.85273 18.8018 9.8098 18.6845C9.76687 18.5671 9.7483 18.4422 9.75523 18.3174C9.75523 17.3274 9.84723 17.0974 9.25123 16.4834C8.49123 15.7234 6.70323 14.6504 6.70323 11.6994C6.69866 10.9664 6.846 10.2404 7.13594 9.56719C7.42589 8.89396 7.85215 8.28809 8.38787 7.78777C8.9236 7.28746 9.55715 6.90355 10.2486 6.66025C10.9401 6.41694 11.6744 6.31952 12.4054 6.37412C13.1364 6.42872 13.8481 6.63415 14.4958 6.97748C15.1434 7.3208 15.7129 7.79457 16.1684 8.36891C16.6238 8.94326 16.9554 9.60573 17.1421 10.3146C17.3288 11.0234 17.3666 11.7632 17.2532 12.4874Z" stroke="white" stroke-width="1.5" stroke-linecap="round" stroke-linejoin="round"/>
<path d="M10.4609 19.234V20.746C10.4609 21.159 10.6909 21.498 10.9739 21.498H13.0269C13.3119 21.498 13.5409 21.158 13.5409 20.746V19.234M11.2209 8.694C10.6305 8.69427 10.0643 8.92901 9.64686 9.34663C9.22943 9.76424 8.99494 10.3305 8.99494 10.921M19.3329 11.902H21.1669M17.4869 5.89L18.7879 4.589M18.4869 16.998L19.7879 18.298M12.0009 2.375V3.858M5.24094 4.588L6.53294 5.89M4.24094 18.298L5.53294 16.998M4.66894 11.902H2.83594" stroke="white" stroke-width="1.5" stroke-linecap="round" stroke-linejoin="round"/>
</svg>
