<svg width="28" height="30" viewBox="0 0 28 30" fill="none" xmlns="http://www.w3.org/2000/svg">
<g filter="url(#filter0_d_2001_132)">
<path fill-rule="evenodd" clip-rule="evenodd" d="M14 2C19.523 2 24 6.477 24 12C24 17.523 19.523 22 14 22C12.298 22.0024 10.6237 21.5686 9.13701 20.74L8.83201 20.562L5.80001 21.454C5.63501 21.5026 5.46033 21.5083 5.29252 21.4705C5.12472 21.4327 4.96935 21.3526 4.84115 21.238C4.71294 21.1233 4.61615 20.9778 4.55995 20.8152C4.50375 20.6526 4.49 20.4784 4.52001 20.309L4.54601 20.2L5.43801 17.168C4.49506 15.6093 3.99769 13.8218 4.00001 12C4.00001 6.477 8.47701 2 14 2ZM11.793 9.793L8.79301 12.793C8.6975 12.8852 8.62132 12.9956 8.56891 13.1176C8.5165 13.2396 8.48891 13.3708 8.48776 13.5036C8.4866 13.6364 8.51191 13.7681 8.56219 13.891C8.61247 14.0139 8.68672 14.1255 8.78061 14.2194C8.87451 14.3133 8.98616 14.3875 9.10905 14.4378C9.23195 14.4881 9.36363 14.5134 9.49641 14.5123C9.62919 14.5111 9.76041 14.4835 9.88241 14.4311C10.0044 14.3787 10.1148 14.3025 10.207 14.207L12.5 11.914L14.793 14.207C14.9805 14.3945 15.2348 14.4998 15.5 14.4998C15.7652 14.4998 16.0195 14.3945 16.207 14.207L19.207 11.207C19.3892 11.0184 19.49 10.7658 19.4877 10.5036C19.4854 10.2414 19.3802 9.99059 19.1948 9.80518C19.0094 9.61977 18.7586 9.5146 18.4964 9.51233C18.2342 9.51005 17.9816 9.61084 17.793 9.793L15.5 12.086L13.207 9.793C13.0195 9.60553 12.7652 9.50021 12.5 9.50021C12.2348 9.50021 11.9805 9.60553 11.793 9.793Z" fill="#E6E6E6"/>
</g>
<defs>
<filter id="filter0_d_2001_132" x="-2" y="0" width="32" height="32" filterUnits="userSpaceOnUse" color-interpolation-filters="sRGB">
<feFlood flood-opacity="0" result="BackgroundImageFix"/>
<feColorMatrix in="SourceAlpha" type="matrix" values="0 0 0 0 0 0 0 0 0 0 0 0 0 0 0 0 0 0 127 0" result="hardAlpha"/>
<feOffset dy="4"/>
<feGaussianBlur stdDeviation="2"/>
<feComposite in2="hardAlpha" operator="out"/>
<feColorMatrix type="matrix" values="0 0 0 0 0 0 0 0 0 0 0 0 0 0 0 0 0 0 0.25 0"/>
<feBlend mode="normal" in2="BackgroundImageFix" result="effect1_dropShadow_2001_132"/>
<feBlend mode="normal" in="SourceGraphic" in2="effect1_dropShadow_2001_132" result="shape"/>
</filter>
</defs>
</svg>
