<svg width="35" height="35" viewBox="0 0 35 35" fill="none" xmlns="http://www.w3.org/2000/svg">
<path d="M30.6251 11.6667H24.7917C22.3709 11.6667 20.4167 9.7125 20.4167 7.29167V1.45833C20.4167 0.641667 19.7751 0 18.9584 0H5.83341C4.22925 0 2.91675 1.3125 2.91675 2.91667V32.0833C2.91675 33.6875 4.22925 35 5.83341 35H29.1667C30.7709 35 32.0834 33.6875 32.0834 32.0833V13.125C32.0834 12.3083 31.4417 11.6667 30.6251 11.6667ZM13.1251 29.1667H10.2084C9.39175 29.1667 8.75008 28.525 8.75008 27.7083C8.75008 26.8917 9.39175 26.25 10.2084 26.25H13.1251C13.9417 26.25 14.5834 26.8917 14.5834 27.7083C14.5834 28.525 13.9417 29.1667 13.1251 29.1667ZM13.1251 23.3333H10.2084C9.39175 23.3333 8.75008 22.6917 8.75008 21.875C8.75008 21.0583 9.39175 20.4167 10.2084 20.4167H13.1251C13.9417 20.4167 14.5834 21.0583 14.5834 21.875C14.5834 22.6917 13.9417 23.3333 13.1251 23.3333ZM13.1251 17.5H10.2084C9.39175 17.5 8.75008 16.8583 8.75008 16.0417C8.75008 15.225 9.39175 14.5833 10.2084 14.5833H13.1251C13.9417 14.5833 14.5834 15.225 14.5834 16.0417C14.5834 16.8583 13.9417 17.5 13.1251 17.5ZM24.7917 29.1667H18.9584C18.1417 29.1667 17.5001 28.525 17.5001 27.7083C17.5001 26.8917 18.1417 26.25 18.9584 26.25H24.7917C25.6084 26.25 26.2501 26.8917 26.2501 27.7083C26.2501 28.525 25.6084 29.1667 24.7917 29.1667ZM24.7917 23.3333H18.9584C18.1417 23.3333 17.5001 22.6917 17.5001 21.875C17.5001 21.0583 18.1417 20.4167 18.9584 20.4167H24.7917C25.6084 20.4167 26.2501 21.0583 26.2501 21.875C26.2501 22.6917 25.6084 23.3333 24.7917 23.3333ZM24.7917 17.5H18.9584C18.1417 17.5 17.5001 16.8583 17.5001 16.0417C17.5001 15.225 18.1417 14.5833 18.9584 14.5833H24.7917C25.6084 14.5833 26.2501 15.225 26.2501 16.0417C26.2501 16.8583 25.6084 17.5 24.7917 17.5ZM23.3334 1.45833V5.83333C23.3334 7.4375 24.6459 8.75 26.2501 8.75H30.6251C31.9376 8.75 32.5792 7.175 31.6459 6.27083L25.8126 0.4375C24.9084 -0.495833 23.3334 0.175 23.3334 1.45833Z" fill="#E6E6E6"/>
</svg>
