<svg width="40" height="40" viewBox="0 0 40 40" fill="none" xmlns="http://www.w3.org/2000/svg">
<path d="M20 5C18.6739 5 17.4021 5.52678 16.4645 6.46447C15.5268 7.40215 15 8.67392 15 10M15 10V30M15 10C15 8.67392 14.4732 7.40215 13.5355 6.46447C12.5979 5.52678 11.3261 5 10 5M15 30C15 31.3261 15.5268 32.5979 16.4645 33.5355C17.4021 34.4732 18.6739 35 20 35M15 30C15 31.3261 14.4732 32.5979 13.5355 33.5355C12.5979 34.4732 11.3261 35 10 35M21.6667 11.6667H33.3333C33.7754 11.6667 34.1993 11.8423 34.5118 12.1548C34.8244 12.4674 35 12.8913 35 13.3333V26.6667C35 27.1087 34.8244 27.5326 34.5118 27.8452C34.1993 28.1577 33.7754 28.3333 33.3333 28.3333H21.6667M8.33333 11.6667H6.66667C6.22464 11.6667 5.80072 11.8423 5.48816 12.1548C5.17559 12.4674 5 12.8913 5 13.3333V26.6667C5 27.1087 5.17559 27.5326 5.48816 27.8452C5.80072 28.1577 6.22464 28.3333 6.66667 28.3333H8.33333M28.3333 20H28.35M21.6667 20H21.6833" stroke="#E6E6E6" stroke-width="4" stroke-linecap="round" stroke-linejoin="round"/>
</svg>
